
<svg viewBox="0 0 100 100" y="0" x="0"
    id="prompt" version="1.1" width="30px" height="30px"
    style="width:100%;height:100%;background-size:initial;background-repeat-y:initial;background-repeat-x:initial;background-position-y:initial;background-position-x:initial;background-origin:initial;background-color:initial;background-clip:initial;background-attachment:initial;animation-play-state:paused">
    <g class="ldl-scale" style="transform-origin:50% 50%;transform:rotate(0deg) scale(0.8, 0.8);animation-play-state:paused">
        <path fill="#e0e0e0" d="M70.5 63.7H45c-1.3 0-2.4 1.1-2.4 2.4 0 1.3 1.1 2.4 2.4 2.4h25.6c1.3 0 2.4-1.1 2.4-2.4-.1-1.3-1.1-2.4-2.5-2.4z" style="fill:rgb(224, 224, 224);animation-play-state:paused"></path>
        <path fill="#e0e0e0" d="M43.3 48l-12-15.6c-.8-1-2.3-1.2-3.3-.4-1 .8-1.2 2.3-.4 3.3l10.8 14.1-10.8 13.8c-.8 1-.6 2.5.4 3.3.4.3.9.5 1.5.5.7 0 1.4-.3 1.9-.9l12-15.2c.5-.8.5-2-.1-2.9z" style="fill:rgb(224, 224, 224);animation-play-state:paused"></path>
        <path fill="#333" d="M81.2 18.3H18.8c-4.8 0-8.8 3.9-8.8 8.8v45.8c0 4.8 3.9 8.8 8.8 8.8h62.5c4.8 0 8.8-3.9 8.8-8.8V27.1c-.1-4.8-4-8.8-8.9-8.8zM29.5 67.1c-.5 0-1-.2-1.5-.5-1-.8-1.2-2.3-.4-3.3l10.8-13.8-10.8-14.2c-.8-1-.6-2.5.4-3.3 1-.8 2.5-.6 3.3.4l12 15.6c.7.9.7 2.1 0 2.9l-12 15.2c-.4.7-1.1 1-1.8 1zm41 1.4H45c-1.3 0-2.4-1.1-2.4-2.4 0-1.3 1.1-2.4 2.4-2.4h25.6c1.3 0 2.4 1.1 2.4 2.4-.1 1.3-1.1 2.4-2.5 2.4z" style="fill:rgb(51, 51, 51);animation-play-state:paused"></path>
    </g>
</svg>